<?xml version="1.0" standalone="no"?>
<!DOCTYPE svg PUBLIC "-//W3C//DTD SVG 20010904//EN"
 "http://www.w3.org/TR/2001/REC-SVG-20010904/DTD/svg10.dtd">
<svg version="1.0" xmlns="http://www.w3.org/2000/svg"
 width="700.000000pt" height="700.000000pt" viewBox="0 0 700.000000 700.000000"
 preserveAspectRatio="xMidYMid meet">
<metadata>
Created by potrace 1.14, written by Peter Selinger 2001-2017
</metadata>
<g transform="translate(0.000000,700.000000) scale(0.100000,-0.100000)"
fill="#000000" stroke="none">
<path d="M3186 6779 c-530 -51 -1057 -238 -1501 -532 -842 -558 -1377 -1457
-1466 -2467 -17 -192 -6 -565 21 -745 63 -421 187 -785 387 -1143 450 -806
1239 -1397 2134 -1601 233 -53 392 -72 649 -78 410 -10 736 36 1105 154 595
190 1158 579 1550 1068 307 383 537 857 644 1326 63 280 75 393 75 734 1 247
-3 334 -17 430 -60 405 -153 704 -324 1047 -155 309 -343 574 -583 822 -553
569 -1270 912 -2065 986 -128 12 -480 11 -609 -1z m724 -903 c11 -19 45 -57
75 -85 l55 -49 -44 -106 c-44 -104 -44 -106 -23 -110 106 -20 193 -43 252 -67
38 -16 73 -29 77 -29 5 0 8 51 8 113 l0 114 43 13 c61 18 113 46 156 85 l39
35 4 -88 c3 -64 10 -100 26 -132 11 -24 18 -48 15 -54 -33 -56 -159 -226 -168
-226 -5 0 -49 15 -97 34 -530 208 -1108 216 -1606 20 -48 -19 -91 -34 -97 -34
-5 0 -31 31 -57 68 -25 37 -62 90 -82 117 l-35 50 29 59 c24 47 30 72 30 123
l0 64 34 -35 c36 -39 107 -75 146 -76 50 -1 55 -11 58 -130 2 -60 5 -110 7
-110 2 0 43 13 92 29 48 16 123 35 166 42 42 6 77 17 77 22 0 6 -17 63 -37
126 -32 95 -36 115 -23 119 34 10 115 108 134 160 l18 53 20 -40 c26 -53 92
-117 144 -138 34 -14 42 -22 39 -38 -2 -11 -9 -51 -15 -90 -6 -38 -13 -81 -15
-95 l-5 -25 175 0 176 0 -5 25 c-26 126 -37 205 -30 207 51 18 121 72 159 124
25 34 46 66 46 73 1 6 5 -10 9 -36 5 -27 18 -63 30 -82z m-116 -521 c-60 -145
-23 -285 103 -394 29 -26 147 -92 303 -171 366 -185 513 -288 646 -454 59 -73
134 -187 134 -204 0 -3 -17 10 -37 30 -36 34 -41 36 -83 29 -25 -4 -55 -13
-67 -19 -20 -11 -25 -8 -54 35 -59 87 -196 239 -276 305 -105 88 -220 161
-388 249 -238 123 -301 176 -357 296 -26 54 -30 73 -26 122 2 32 14 76 26 100
24 45 83 123 89 118 2 -2 -4 -21 -13 -42z m-1139 -139 c22 -17 35 -35 35 -51
0 -22 -1 -22 -34 11 -47 47 -115 45 -153 -5 -19 -24 -15 -92 7 -128 24 -39 57
-57 146 -79 38 -9 84 -25 103 -36 18 -10 35 -18 36 -16 1 2 7 13 13 24 25 48
135 70 205 40 75 -31 119 -115 82 -156 -10 -11 -27 -20 -37 -20 -16 0 -17 3
-8 20 14 27 -1 54 -39 70 -43 17 -76 6 -101 -35 -28 -45 -28 -83 0 -175 19
-60 24 -99 24 -195 0 -109 -3 -129 -33 -220 -65 -195 -185 -392 -308 -506 -56
-51 -197 -149 -214 -149 -5 0 -9 -3 -9 -7 0 -5 32 -6 71 -5 60 3 78 0 126 -23
44 -22 64 -26 101 -22 61 7 97 45 89 95 -5 28 -4 32 8 22 43 -36 32 -120 -22
-156 -26 -18 -39 -20 -80 -14 -26 4 -50 6 -52 4 -2 -2 15 -22 39 -44 l44 -40
-41 14 -41 15 19 -42 c23 -51 24 -95 3 -125 -51 -73 -197 -67 -217 9 -5 19 -4
20 12 5 10 -9 34 -16 53 -16 29 0 42 7 67 35 39 45 39 75 -1 120 -70 80 -180
103 -256 53 -73 -49 -121 -194 -92 -282 17 -52 80 -127 136 -163 77 -49 153
-67 254 -60 246 18 455 140 544 317 47 94 46 99 -6 93 -47 -6 -46 -4 16 41 53
40 70 84 62 167 -7 64 -6 67 13 62 10 -3 25 -18 32 -35 7 -16 29 -41 51 -55
44 -29 41 -24 26 -58 -12 -27 -54 -55 -83 -55 -27 0 -16 -17 16 -24 58 -11
114 -6 146 14 l33 20 21 -43 c30 -59 76 -115 122 -148 22 -16 42 -28 44 -26 2
2 -4 17 -12 34 -12 24 -13 37 -4 61 9 27 14 30 30 21 24 -12 59 -67 59 -91 0
-9 -11 -30 -25 -46 -32 -39 -32 -42 8 -42 44 0 66 26 76 87 l8 48 12 -44 c15
-52 9 -83 -21 -111 -12 -11 -16 -20 -10 -20 7 0 21 15 33 33 23 36 20 83 -8
145 l-17 37 -6 -67 c-7 -74 -21 -98 -56 -98 l-23 0 20 35 c15 25 19 43 14 63
-6 27 -61 92 -77 92 -15 0 -37 -66 -31 -90 l6 -24 -27 21 c-36 28 -83 88 -108
136 -16 32 -17 44 -9 69 12 34 13 113 3 140 -4 10 -7 -18 -7 -61 0 -81 -3 -88
-55 -124 -25 -17 -130 -25 -130 -9 1 4 15 16 33 27 42 27 57 77 31 106 -10 11
-21 41 -25 67 l-8 47 3 -45 c1 -25 6 -54 11 -65 6 -15 -1 -12 -24 11 -20 19
-37 50 -46 80 -10 36 -13 42 -14 22 -1 -25 -4 -27 -33 -22 -49 9 -118 46 -136
73 l-16 24 31 -17 c48 -24 91 -21 105 9 22 49 -33 117 -76 93 -16 -9 -17 -7
-11 13 4 13 11 28 16 34 17 18 9 23 -52 34 -66 11 -119 39 -142 74 l-15 23 51
-18 c93 -32 213 -16 255 34 11 13 7 21 -21 52 -45 48 -65 47 -100 -3 l-16 -24
-7 27 c-15 59 24 99 124 125 52 14 54 21 5 15 -39 -5 -103 24 -103 47 0 6 12
1 26 -10 48 -38 105 -17 120 44 9 36 1 40 -53 28 -27 -6 -49 -10 -51 -9 -10
11 47 57 95 78 32 14 69 30 83 35 20 9 14 10 -32 6 -67 -7 -88 5 -88 50 l0 30
21 -27 c15 -19 30 -26 54 -26 39 0 47 7 83 75 20 37 38 55 69 70 23 11 42 23
43 27 0 3 -14 9 -30 13 -17 4 -35 16 -42 28 -9 19 -9 20 3 11 31 -24 49 -23
76 2 25 24 34 26 88 21 33 -3 69 -8 80 -12 l20 -7 -20 17 c-11 9 -29 22 -40
30 -18 13 -16 14 27 14 62 1 146 -31 207 -79 27 -21 81 -52 121 -69 149 -64
330 -193 330 -235 0 -20 -40 -32 -51 -15 -6 9 -7 3 -3 -16 7 -36 -21 -77 -68
-101 -27 -14 -37 -14 -121 7 -51 12 -126 23 -168 23 -66 1 -80 -2 -116 -26
-50 -33 -61 -60 -38 -94 23 -36 91 -63 182 -74 43 -5 85 -11 93 -14 71 -25 73
-27 62 -38 -20 -20 -13 -55 13 -76 14 -11 25 -23 25 -27 0 -16 -57 9 -89 38
l-33 32 16 -32 c21 -42 21 -64 0 -34 -14 19 -69 51 -88 51 -17 0 -35 -35 -30
-58 5 -26 5 -26 -26 8 -17 19 -33 45 -36 58 -8 27 -20 29 -27 2 -3 -12 -14
-20 -26 -20 -18 0 -19 3 -11 25 5 14 7 32 3 40 -5 14 -8 14 -27 -3 -33 -30
-61 -42 -100 -42 -39 0 -48 15 -16 25 21 7 76 72 68 80 -3 3 -25 1 -50 -3
l-46 -9 5 36 c6 54 -6 66 -49 45 -24 -11 -45 -14 -64 -10 l-29 8 30 12 c17 8
38 22 47 32 38 44 63 144 38 159 -5 3 -19 1 -31 -5 -58 -31 -8 37 57 77 17 11
16 12 -11 12 -52 1 -75 25 -75 77 0 37 6 51 29 75 35 34 52 36 97 8 19 -11 34
-18 34 -15 0 11 -64 46 -83 46 -11 0 -34 -15 -53 -34 -29 -29 -34 -41 -34 -79
0 -50 16 -73 56 -83 l26 -7 -27 -17 c-34 -22 -65 -69 -64 -95 0 -11 3 -14 6
-7 4 11 54 42 68 42 12 0 3 -68 -14 -107 -19 -41 -40 -58 -96 -79 l-30 -11 43
-13 c37 -12 47 -11 78 3 30 15 35 15 40 2 4 -8 3 -31 0 -50 -7 -35 -7 -35 26
-29 18 3 39 7 46 10 6 2 12 0 12 -5 0 -20 -38 -53 -75 -66 l-40 -13 28 -11
c49 -19 103 -13 135 14 17 14 33 25 37 25 11 0 -6 -44 -23 -57 -13 -11 -11
-13 19 -13 19 0 41 6 48 13 11 10 15 9 19 -2 7 -21 74 -90 90 -93 7 -2 30 -19
50 -39 51 -50 109 -67 152 -45 42 21 42 21 38 -10 -3 -29 -13 -37 -68 -53
l-35 -10 40 6 c64 9 93 49 65 93 -8 13 -11 13 -22 -2 -15 -21 -78 -36 -78 -20
0 16 179 132 315 204 l120 63 127 0 127 0 41 42 c22 24 51 45 63 47 101 21
112 15 62 -34 -41 -40 -43 -52 -12 -73 21 -14 21 -17 6 -44 -15 -27 -17 -28
-92 -27 -94 2 -94 -5 -1 -14 73 -7 96 -28 52 -47 -18 -8 -23 -18 -23 -45 0
-27 5 -37 23 -45 26 -11 25 -38 -1 -43 -26 -5 -47 16 -47 49 0 16 -5 29 -11
29 -6 0 -9 -9 -6 -20 3 -10 -1 -27 -8 -37 -12 -16 -16 -14 -50 20 -31 31 -36
34 -31 15 3 -13 9 -34 13 -47 l6 -25 -28 22 c-33 27 -75 29 -75 5 0 -22 29
-53 49 -53 14 0 14 -2 1 -10 -25 -16 -78 -11 -120 10 -56 29 -49 17 15 -26 54
-35 85 -75 85 -109 0 -9 -3 -15 -7 -13 -115 57 -143 68 -175 68 -21 0 -38 -3
-38 -8 0 -21 35 -53 70 -63 22 -7 37 -16 34 -20 -10 -17 -60 -8 -98 17 -40 27
-40 22 1 -32 32 -43 30 -64 -4 -32 -35 32 -66 48 -94 48 -19 0 -16 -6 25 -50
25 -27 46 -58 46 -70 0 -20 -1 -19 -39 6 -40 26 -126 46 -191 45 -71 -2 -80 5
-80 55 0 49 -24 104 -64 146 -22 23 -23 27 -8 31 9 3 4 5 -13 6 l-29 1 36 -37
c48 -51 68 -93 68 -147 0 -50 16 -66 67 -66 l28 -1 -24 -19 c-13 -11 -38 -20
-57 -20 -27 0 -38 -7 -59 -37 -44 -65 -31 -102 68 -193 71 -65 90 -94 82 -130
-8 -36 -21 -39 -29 -6 -10 39 -78 92 -149 115 -68 23 -92 45 -119 107 -11 27
-12 25 -18 -41 -3 -38 -12 -80 -18 -92 -17 -31 -68 -56 -98 -49 -15 4 -24 2
-24 -5 0 -18 78 -4 102 18 28 25 48 75 48 120 l0 38 18 -30 c26 -42 41 -52
107 -75 75 -26 119 -60 141 -110 27 -60 60 -54 73 14 l7 31 46 -66 c51 -71 83
-137 94 -194 3 -19 10 -35 15 -35 21 0 87 -73 114 -125 33 -66 53 -81 132
-102 97 -25 111 -50 31 -55 -52 -3 -53 -4 -56 -36 -2 -18 2 -40 8 -47 7 -8 9
-19 5 -25 -12 -19 -32 -10 -56 28 -16 25 -33 38 -52 40 -32 4 -31 5 -12 -41 8
-20 15 -46 15 -57 l0 -22 -35 22 c-19 12 -41 19 -48 17 -7 -3 -5 -6 5 -6 10
-1 29 -19 43 -41 30 -47 51 -60 102 -60 l38 -1 -28 -24 c-38 -34 -88 -41 -142
-20 -83 31 -108 94 -57 142 23 22 24 24 4 14 -13 -7 -28 -23 -34 -37 -13 -28
-26 -30 -54 -10 -18 14 -18 15 9 25 55 21 21 78 -53 88 -54 8 -69 35 -51 94 7
22 11 43 9 45 -2 2 -23 -4 -47 -12 -52 -18 -68 -11 -47 22 9 13 16 25 16 28 0
3 -20 19 -45 36 -42 29 -45 33 -40 68 6 40 -5 94 -21 99 -5 1 -16 -18 -24 -45
-8 -26 -22 -48 -30 -50 -13 -2 -16 11 -15 77 0 70 -3 83 -22 103 l-22 22 -15
-34 c-7 -19 -12 -40 -9 -47 3 -7 2 -13 -1 -13 -15 0 -36 72 -36 121 l0 52 -25
-23 c-14 -13 -30 -42 -36 -64 l-11 -40 -16 28 c-18 30 -222 179 -222 162 0 -3
35 -29 78 -57 42 -29 78 -53 80 -54 1 -1 -5 -19 -13 -40 -11 -24 -14 -48 -9
-68 6 -28 5 -30 -9 -19 -8 7 -18 31 -22 53 l-7 41 -32 -36 c-43 -46 -71 -52
-170 -32 -89 18 -157 12 -216 -19 -34 -18 -50 -13 -50 14 0 26 23 42 83 57
l52 14 -45 -5 c-25 -3 -56 -14 -70 -24 -23 -17 -25 -23 -25 -112 0 -87 -2 -97
-29 -137 -46 -68 -47 -125 -3 -214 61 -125 67 -211 24 -349 l-20 -67 23 -37
c44 -72 132 -98 179 -54 18 17 22 30 19 60 -4 46 9 46 35 2 12 -21 16 -40 11
-58 -8 -32 -57 -82 -87 -88 -22 -4 -22 -4 0 -6 30 -2 79 43 93 83 14 42 2 74
-40 110 -36 30 -47 29 -31 -2 6 -12 11 -33 11 -48 0 -72 -84 -88 -150 -28 -21
19 -42 44 -45 55 -4 11 2 47 13 82 11 34 23 83 27 108 8 63 -18 179 -55 245
-36 64 -39 117 -10 175 23 43 29 44 117 13 42 -15 105 -75 125 -118 7 -17 22
-26 52 -30 103 -16 202 -96 262 -211 31 -60 46 -68 110 -63 l39 3 -1 44 -1 44
29 -31 c30 -35 38 -88 16 -110 -17 -17 -81 -15 -125 3 -43 18 -53 13 -27 -16
28 -32 76 -49 135 -49 l52 0 -19 -21 c-24 -27 -79 -21 -126 13 -31 24 -68 42
-68 34 0 -2 16 -13 35 -25 22 -13 35 -28 35 -41 0 -31 25 -74 60 -104 29 -24
30 -26 10 -26 -34 0 -59 18 -90 66 -30 48 -34 48 -45 -3 -8 -38 8 -93 41 -142
13 -19 22 -37 20 -39 -13 -12 -49 27 -75 81 l-30 62 -1 -45 c0 -26 -8 -58 -19
-76 -19 -32 -92 -74 -126 -74 -10 0 -15 -3 -12 -6 4 -4 44 -10 90 -14 92 -9
129 -24 186 -76 73 -65 160 -83 198 -42 11 13 32 42 47 65 26 42 48 54 61 32
4 -5 0 -18 -9 -28 -9 -10 -16 -27 -16 -39 0 -23 34 -52 62 -52 9 0 23 -10 29
-22 10 -18 8 -24 -11 -40 -27 -22 -50 -22 -115 -4 -108 31 -104 31 -65 -4 36
-32 112 -60 163 -60 l28 0 -20 -26 c-23 -29 -27 -64 -11 -94 7 -13 6 -21 -5
-30 -11 -10 -19 -7 -40 16 -14 15 -25 30 -25 34 0 4 -11 5 -25 3 -30 -6 -105
35 -134 74 -16 22 -20 24 -21 10 0 -35 29 -73 69 -92 56 -25 57 -55 2 -55 -41
0 -71 -20 -71 -47 0 -11 -7 -13 -32 -8 -36 8 -50 23 -43 43 3 8 8 31 11 51 5
31 2 43 -20 67 l-26 29 6 -31 c6 -32 -9 -74 -26 -74 -4 0 -14 16 -20 35 -16
48 -29 52 -42 15 l-11 -32 -24 31 c-24 30 -71 61 -93 61 -33 0 13 -115 57
-142 l28 -17 -34 -14 c-70 -30 -106 8 -140 146 l-18 72 -6 -64 c-4 -36 -14
-75 -23 -88 -20 -31 -57 -45 -86 -33 -13 5 -18 9 -12 9 21 2 64 54 64 78 0 41
-28 83 -54 83 -24 0 -86 -52 -86 -71 0 -5 -5 -9 -11 -9 -16 0 -5 101 15 140
16 32 7 40 -15 13 -22 -25 -90 -53 -133 -53 l-40 0 45 28 c24 16 52 38 62 49
18 21 18 21 -65 16 -80 -5 -85 -4 -113 21 -28 25 -28 27 -6 21 75 -21 136 5
160 69 17 45 4 99 -35 146 -22 25 -27 44 -31 110 -3 44 -3 80 -1 80 3 0 18
-24 32 -54 15 -30 42 -66 61 -81 40 -30 102 -58 117 -53 6 2 -7 9 -30 16 -62
19 -130 86 -152 151 -16 49 -19 52 -29 33 -6 -11 -11 -37 -11 -58 0 -31 -2
-35 -14 -24 -12 9 -18 5 -34 -27 -19 -37 -23 -53 -37 -136 -6 -38 -7 -38 -26
-21 -27 24 -25 94 6 169 14 33 25 61 25 62 0 1 -22 -8 -49 -19 -29 -13 -56
-18 -67 -14 -17 7 -14 10 16 27 19 11 26 17 15 13 -11 -4 -37 -9 -58 -12 -46
-5 -80 21 -98 75 -6 19 -13 32 -16 30 -8 -9 24 -74 47 -95 20 -18 21 -24 10
-37 -34 -41 -107 -59 -182 -45 -28 6 -53 8 -56 6 -2 -3 6 -19 18 -36 12 -17
29 -52 36 -77 17 -56 18 -192 3 -264 l-11 -53 36 -34 c34 -30 42 -33 92 -31
70 3 91 -14 52 -43 -16 -11 -28 -27 -28 -36 1 -15 2 -15 11 1 15 25 36 21 70
-12 26 -26 29 -36 29 -91 0 -74 -12 -100 -46 -100 -25 0 -26 1 -19 50 6 41 3
56 -17 91 -21 38 -23 39 -28 17 -8 -34 -47 -37 -60 -3 -5 14 -10 38 -10 53 l0
27 -13 -25 c-7 -14 -22 -25 -32 -25 -11 -1 -25 -4 -32 -8 -6 -4 -23 -2 -36 4
-21 9 -32 8 -66 -11 -50 -29 -67 -18 -77 46 -6 40 -8 43 -20 27 -12 -17 -15
-17 -41 -3 -22 12 -29 25 -34 59 -6 47 -26 69 -71 78 -16 3 -28 9 -28 13 0 16
50 51 94 66 56 19 57 27 1 14 -54 -13 -108 -12 -142 1 l-28 11 44 13 c24 8 54
24 68 37 26 24 68 97 60 104 -10 11 -62 -11 -103 -42 -33 -25 -44 -30 -44 -18
0 34 34 86 76 116 24 17 44 32 44 34 0 1 -26 -9 -57 -22 -76 -31 -115 -31
-150 1 l-28 26 42 -6 c53 -8 107 9 133 42 11 14 20 29 20 33 0 16 -45 18 -84
5 -22 -8 -42 -12 -45 -9 -11 11 51 58 99 74 50 17 52 18 30 30 -12 7 -38 10
-56 8 -19 -2 -34 -1 -34 2 0 14 38 40 75 53 l40 14 -65 7 c-76 9 -144 36 -159
64 -10 19 -10 19 26 1 44 -23 84 -24 122 -5 48 25 55 41 29 66 -20 19 -31 21
-80 17 -53 -5 -57 -4 -48 13 22 40 108 46 195 14 13 -5 6 8 -22 39 -34 36 -43
54 -43 82 0 44 9 44 37 1 35 -54 84 -86 142 -93 55 -6 64 2 31 32 -12 11 -20
31 -20 49 l0 30 38 -37 c45 -44 87 -55 129 -33 30 15 69 63 60 73 -3 2 -19 -3
-36 -11 -40 -21 -85 -20 -107 2 -17 16 -15 17 32 23 64 8 102 28 148 79 39 44
42 59 8 41 -12 -6 -39 -11 -62 -11 l-42 0 50 48 c51 47 93 123 107 191 7 31 5
33 -11 26 -120 -51 -246 -43 -384 22 -180 86 -281 261 -267 463 4 47 13 107
22 133 17 56 12 73 -37 111 l-32 25 26 6 c31 8 81 -18 97 -49 5 -12 10 -15 10
-7 1 7 -16 30 -38 50 -48 45 -60 67 -71 137 -11 64 -1 99 30 109 29 9 31 5 18
-38 l-12 -38 52 -45 c60 -53 81 -88 91 -153 6 -35 10 -41 15 -26 23 63 40 84
86 104 137 59 290 229 290 322 0 45 -29 84 -75 100 -45 16 -45 29 -1 29 47 0
90 -39 114 -102 l19 -51 22 32 c31 44 76 146 92 211 7 30 13 100 13 156 0 90
-3 107 -28 158 -66 136 -237 177 -333 81 -26 -26 -33 -41 -33 -71 0 -75 78
-174 135 -174 9 0 27 11 40 25 28 27 32 18 10 -24 -18 -36 -42 -42 -90 -25
-47 16 -55 12 -55 -30 0 -38 -15 -56 -47 -56 -26 0 -31 15 -8 24 26 10 17 45
-29 109 -53 75 -59 93 -57 173 2 103 28 147 111 189 106 54 173 56 231 7 27
-22 30 -23 21 -5 -11 19 -85 54 -144 67 -39 9 -85 52 -99 93 -17 52 -8 191 16
226 41 64 133 74 200 23z m2332 -900 c13 -15 23 -36 23 -47 0 -19 -1 -19 -22
-5 -12 9 -36 16 -53 16 -23 0 -37 8 -53 30 -12 16 -22 32 -22 36 0 4 23 4 52
2 40 -4 57 -11 75 -32z m-932 -65 c3 -6 -4 -15 -15 -21 -17 -9 -20 -8 -20 10
0 20 24 28 35 11z m672 -44 c39 -58 36 -79 -14 -105 -22 -12 -103 -17 -103 -7
0 28 71 145 88 145 4 0 17 -15 29 -33z m237 -78 c14 -17 26 -40 26 -52 0 -16
3 -18 9 -8 11 17 44 -68 72 -184 59 -249 46 -536 -41 -880 -51 -201 -51 -397
-1 -511 25 -55 73 -108 124 -134 l42 -22 -40 7 c-61 10 -138 48 -180 90 -90
91 -115 225 -75 415 60 289 82 571 61 760 -15 129 -25 172 -63 278 -28 80 -29
85 -14 117 9 18 16 38 16 44 0 34 48 -9 57 -50 3 -16 9 -32 13 -34 9 -6 30 50
29 74 0 9 -5 0 -11 -19 l-10 -35 -16 34 c-18 37 -31 47 -74 56 -35 7 -35 21
-1 57 34 36 45 35 77 -3z m-954 -8 c0 -25 -3 -28 -26 -23 l-25 5 22 23 c28 30
29 30 29 -5z m-117 -181 l6 -35 -15 28 c-8 15 -12 32 -8 38 8 14 10 10 17 -31z
m987 -25 c20 -53 23 -75 9 -71 -8 2 -26 7 -41 10 -35 8 -38 48 -6 70 28 20 27
21 38 -9z m47 -187 c-3 -7 -5 -2 -5 12 0 14 2 19 5 13 2 -7 2 -19 0 -25z
m-677 -268 c10 -18 7 -19 -55 -13 -43 4 -65 2 -65 -5 0 -19 52 -52 84 -53 28
0 29 -1 10 -11 -17 -8 -33 -5 -69 11 -86 38 -124 19 -70 -35 14 -14 25 -27 25
-29 0 -11 -68 -4 -85 8 -14 11 -16 21 -11 48 10 49 38 79 75 79 20 0 42 10 63
29 l33 29 27 -20 c16 -11 33 -28 38 -38z m332 -647 c3 -46 14 -59 66 -79 1 -1
0 -8 -4 -17 -7 -19 -55 -37 -98 -37 -27 0 -34 6 -50 43 -11 23 -21 45 -23 48
-6 10 76 89 91 89 11 0 16 -14 18 -47z m103 24 c54 -26 78 -71 57 -104 -6 -9
-13 -7 -26 8 -14 17 -25 20 -56 15 -28 -4 -43 -2 -54 10 -16 15 -22 75 -10 87
8 7 61 -2 89 -16z m27 -289 c28 -23 48 -62 48 -94 0 -24 -9 -40 -37 -65 l-38
-33 -6 44 c-4 29 -13 49 -30 62 -46 35 -49 39 -49 68 0 29 1 30 48 30 27 0 55
-6 64 -12z m-492 -780 c51 -26 90 -78 90 -118 0 -27 0 -27 -44 16 -48 48 -86
57 -108 25 -12 -16 -18 -17 -48 -7 -45 14 -51 46 -16 81 31 31 68 32 126 3z
m-1936 -179 c33 -26 33 -59 2 -89 -17 -15 -26 -36 -28 -64 -3 -35 -6 -41 -23
-38 -46 8 -59 78 -29 165 18 53 36 59 78 26z m1934 -84 c37 -42 49 -94 32
-136 -15 -36 -55 -69 -83 -69 -19 0 -19 1 -4 18 24 27 21 48 -13 84 -38 39
-39 76 -4 112 15 14 30 26 34 26 5 0 22 -16 38 -35z m-1661 -93 c16 -10 33
-57 33 -91 0 -33 -38 -78 -73 -86 -15 -4 -38 0 -58 11 l-34 19 40 5 c37 5 40
8 43 38 2 19 -1 47 -7 63 -8 23 -7 30 7 39 21 11 33 12 49 2z m1433 -76 c16
-49 -7 -102 -54 -121 -52 -22 -56 -19 -33 24 l22 40 -23 23 c-12 14 -22 29
-22 34 0 20 25 34 61 34 34 0 39 -3 49 -34z"/>
<path d="M3583 4598 c4 -12 1 -18 -7 -18 -16 0 -26 -23 -25 -53 1 -16 3 -14 8
8 6 25 11 30 35 28 28 -2 28 -2 10 20 -10 12 -21 24 -23 27 -2 3 -1 -3 2 -12z"/>
<path d="M3953 4575 c3 -11 8 -28 12 -38 7 -17 5 -17 -26 2 -44 27 -81 26
-116 -3 -15 -12 -35 -21 -43 -19 -8 3 0 -5 18 -16 41 -26 113 -46 135 -38 10
4 17 16 17 27 0 11 7 20 15 20 19 0 19 9 -1 51 -8 19 -13 25 -11 14z"/>
<path d="M3842 4371 c25 -5 57 -12 70 -16 19 -5 20 -4 6 5 -10 6 -42 13 -70
15 l-53 4 47 -8z"/>
<path d="M3750 4360 c-18 -12 -2 -12 25 0 13 6 15 9 5 9 -8 0 -22 -4 -30 -9z"/>
<path d="M3661 4284 c-12 -15 -21 -32 -21 -38 0 -6 6 -2 12 9 6 11 18 28 26
38 8 9 12 17 9 17 -3 0 -15 -12 -26 -26z"/>
<path d="M3640 4193 c0 -6 9 -21 21 -34 l20 -24 -17 30 c-24 39 -24 40 -24 28z"/>
<path d="M3246 3785 c-3 -9 -6 -26 -5 -38 1 -14 4 -9 9 13 9 37 7 52 -4 25z"/>
</g>
</svg>
