<?xml version="1.0" encoding="UTF-8" standalone="no"?>
<!DOCTYPE svg PUBLIC "-//W3C//DTD SVG 1.1//EN" "http://www.w3.org/Graphics/SVG/1.1/DTD/svg11.dtd">
<svg width="100%" height="100%" viewBox="0 0 2048 2048" version="1.1" xmlns="http://www.w3.org/2000/svg" xmlns:xlink="http://www.w3.org/1999/xlink" xml:space="preserve" xmlns:serif="http://www.serif.com/" style="fill-rule:evenodd;clip-rule:evenodd;stroke-linecap:round;stroke-linejoin:round;stroke-miterlimit:1.5;">
    <g id="Calque1" transform="matrix(2.38356,0,0,2.38356,82.7335,-101.938)">
        <g transform="matrix(2.24154,0,0,2.27473,-857.693,-766.774)">
            <ellipse cx="558.809" cy="544.746" rx="162.835" ry="160.458" style="fill:rgb(227,29,2);stroke:black;stroke-width:0.66px;"/>
        </g>
        <g transform="matrix(1,0,0,1,8.89917,82.3762)">
            <path d="M706.738,349.723L731.486,331.821C721.176,357.531 728.88,376.424 749.522,390.422C726.676,404.527 721.536,425.441 727.041,450.45L706.511,434.85L706.738,349.723Z" style="fill:rgb(235,186,8);stroke:black;stroke-width:0.75px;"/>
        </g>
        <g transform="matrix(1.04139,0,0,1.04139,-5.6447,94.1208)">
            <circle cx="384.625" cy="363.222" r="312.083"/>
        </g>
        <g transform="matrix(0.41954,0,0,0.41954,39.4651,125.921)">
            <g transform="matrix(0.442258,0.605729,-0.807639,0.589677,1110.73,367.122)">
                <text x="221.785px" y="1222.12px" style="font-family:'TimesNewRomanPSMT', 'Times New Roman', serif;font-size:133.333px;fill:rgb(232,187,8);">A</text>
            </g>
            <g transform="matrix(0.513898,0.546268,-0.728357,0.685198,1080.38,257.17)">
                <text x="277.353px" y="1298.21px" style="font-family:'TimesNewRomanPSMT', 'Times New Roman', serif;font-size:133.333px;fill:rgb(232,187,8);">R</text>
            </g>
            <g transform="matrix(0.574115,0.482589,-0.643452,0.765487,1020.99,156.467)">
                <text x="338.1px" y="1362.95px" style="font-family:'TimesNewRomanPSMT', 'Times New Roman', serif;font-size:133.333px;fill:rgb(232,187,8);">C</text>
            </g>
            <g transform="matrix(0.629326,0.407982,-0.543976,0.839101,923.002,62.9312)">
                <text x="405.852px" y="1420.21px" style="font-family:'TimesNewRomanPSMT', 'Times New Roman', serif;font-size:133.333px;fill:rgb(232,187,8);">H</text>
            </g>
            <g transform="matrix(0.672824,0.331372,-0.441829,0.897099,808.72,-9.35739)">
                <text x="485.085px" y="1471.18px" style="font-family:'TimesNewRomanPSMT', 'Times New Roman', serif;font-size:133.333px;fill:rgb(232,187,8);">E</text>
            </g>
            <g transform="matrix(0.707817,0.247983,-0.330645,0.943755,662.123,-53.9275)">
                <text x="559.512px" y="1508.09px" style="font-family:'TimesNewRomanPSMT', 'Times New Roman', serif;font-size:133.333px;fill:rgb(232,187,8);">R</text>
            </g>
            <g transform="matrix(0.730743,0.168861,-0.225148,0.974324,519.436,-69.2251)">
                <text x="643.697px" y="1537.28px" style="font-family:'TimesNewRomanPSMT', 'Times New Roman', serif;font-size:133.333px;fill:rgb(232,187,8);">S</text>
            </g>
            <g transform="matrix(0.748746,0.0433581,-0.0578109,0.998328,283.282,-30.6971)">
                <text x="768.216px" y="1561.38px" style="font-family:'TimesNewRomanPSMT', 'Times New Roman', serif;font-size:133.333px;fill:rgb(232,187,8);">d</text>
            </g>
            <g transform="matrix(0.749614,-0.0240724,0.0320965,0.999485,160.375,21.0552)">
                <text x="841.159px" y="1565.28px" style="font-family:'TimesNewRomanPSMT', 'Times New Roman', serif;font-size:133.333px;fill:rgb(232,187,8);">e</text>
            </g>
            <g transform="matrix(0.732861,-0.159419,0.212559,0.977148,-75.7633,188.074)">
                <text x="956.361px" y="1558.36px" style="font-family:'TimesNewRomanPSMT', 'Times New Roman', serif;font-size:133.333px;fill:rgb(232,187,8);">G</text>
            </g>
            <g transform="matrix(0.707048,-0.250167,0.333555,0.94273,-206.069,350.381)">
                <text x="1048.38px" y="1538.55px" style="font-family:'TimesNewRomanPSMT', 'Times New Roman', serif;font-size:133.333px;fill:rgb(232,187,8);">U</text>
            </g>
            <g transform="matrix(0.669389,-0.338259,0.451011,0.892518,-303.885,546.618)">
                <text x="1137.04px" y="1507.29px" style="font-family:'TimesNewRomanPSMT', 'Times New Roman', serif;font-size:133.333px;fill:rgb(232,187,8);">Y</text>
            </g>
            <g transform="matrix(0.625078,-0.41446,0.552614,0.833437,-351.548,749.959)">
                <text x="1220.93px" y="1464.5px" style="font-family:'TimesNewRomanPSMT', 'Times New Roman', serif;font-size:133.333px;fill:rgb(232,187,8);">E</text>
            </g>
            <g transform="matrix(0.571226,-0.486004,0.648006,0.761635,-366.134,965.275)">
                <text x="1290.29px" y="1418.78px" style="font-family:'TimesNewRomanPSMT', 'Times New Roman', serif;font-size:133.333px;fill:rgb(232,187,8);">N</text>
            </g>
            <g transform="matrix(0.5055,-0.554049,0.738731,0.674,-329.543,1197.18)">
                <text x="1361.9px" y="1357.74px" style="font-family:'TimesNewRomanPSMT', 'Times New Roman', serif;font-size:133.333px;fill:rgb(232,187,8);">N</text>
            </g>
            <g transform="matrix(0.436114,-0.610168,0.813557,0.581485,-244.018,1408.53)">
                <text x="1425.16px" y="1287.74px" style="font-family:'TimesNewRomanPSMT', 'Times New Roman', serif;font-size:133.333px;fill:rgb(232,187,8);">E</text>
            </g>
        </g>
        <g transform="matrix(1.58136,0,0,1.60478,-488.779,-401.819)">
            <ellipse cx="558.809" cy="544.746" rx="162.835" ry="160.458" style="fill:rgb(227,29,2);stroke:black;stroke-width:0.94px;"/>
        </g>
        <g transform="matrix(0.41954,0,0,0.41954,-28.728,53.6523)">
            <g transform="matrix(0.556891,-0.531763,0.690602,0.723235,-168.557,446.992)">
                <text x="534.919px" y="587.291px" style="font-family:'TimesNewRomanPS-BoldMT', 'Times New Roman', serif;font-weight:700;font-size:183.333px;fill:rgb(232,187,8);">B</text>
            </g>
            <g transform="matrix(0.662895,-0.391753,0.508771,0.860902,-39.7042,316.066)">
                <text x="630.709px" y="495.94px" style="font-family:'TimesNewRomanPS-BoldMT', 'Times New Roman', serif;font-weight:700;font-size:183.333px;fill:rgb(232,187,8);">O</text>
            </g>
            <g transform="matrix(0.735198,-0.228876,0.297242,0.954802,75.5248,192.616)">
                <text x="758.338px" y="421.491px" style="font-family:'TimesNewRomanPS-BoldMT', 'Times New Roman', serif;font-weight:700;font-size:183.333px;fill:rgb(232,187,8);">R</text>
            </g>
            <g transform="matrix(0.767133,-0.066387,0.0862169,0.996276,174.872,60.6303)">
                <text x="891.928px" y="380.771px" style="font-family:'TimesNewRomanPS-BoldMT', 'Times New Roman', serif;font-weight:700;font-size:183.333px;fill:rgb(232,187,8);">D</text>
            </g>
            <g transform="matrix(0.763761,0.0978189,-0.127038,0.991898,290.733,-97.8889)">
                <text x="1031.41px" y="370.554px" style="font-family:'TimesNewRomanPS-BoldMT', 'Times New Roman', serif;font-weight:700;font-size:183.333px;fill:rgb(232,187,8);">E</text>
            </g>
            <g transform="matrix(0.72319,0.264378,-0.343348,0.939208,454.984,-283.681)">
                <text x="1162.26px" y="388.119px" style="font-family:'TimesNewRomanPS-BoldMT', 'Times New Roman', serif;font-weight:700;font-size:183.333px;fill:rgb(232,187,8);">A</text>
            </g>
            <g transform="matrix(0.64595,0.419104,-0.544291,0.838896,695.717,-471.648)">
                <text x="1293.33px" y="436.927px" style="font-family:'TimesNewRomanPS-BoldMT', 'Times New Roman', serif;font-weight:700;font-size:183.333px;fill:rgb(232,187,8);">U</text>
            </g>
            <g transform="matrix(0.538768,0.550117,-0.714438,0.699699,1017.18,-621.449)">
                <text x="1409.97px" y="513.489px" style="font-family:'TimesNewRomanPS-BoldMT', 'Times New Roman', serif;font-weight:700;font-size:183.333px;fill:rgb(232,187,8);">X</text>
            </g>
        </g>
        <g id="Flèches">
            <g id="Flèche-Bas" serif:id="Flèche Bas" transform="matrix(0.965824,-0.259198,0.259198,0.965824,-102.95,132.553)">
                <g transform="matrix(1,0,0,1,8.89917,82.3762)">
                    <path d="M22.593,377.249L52.253,376.353C52.253,376.353 59.414,378.427 62.726,378.355C65.648,378.292 99.865,372.387 105.713,372.433C114.965,372.505 136.572,380.218 136.774,389.657C136.987,399.579 112.233,407.658 108.324,408.15C101.022,409.068 68.805,401.288 62.279,401.64C55.769,401.99 51.775,403.263 51.775,403.263L22.353,403.115C22.353,403.115 30.666,399.328 31.242,396.507C31.818,393.687 25.22,392.083 25.185,389.79C25.15,387.496 32.003,387.835 31.03,382.745C30.058,377.655 22.593,377.249 22.593,377.249Z" style="fill:rgb(235,186,8);stroke:black;stroke-width:0.75px;"/>
                </g>
                <g transform="matrix(1,0,0,0.898329,8.89917,122.318)">
                    <path d="M24.541,386.677L159.114,386.677L159.114,392.851L24.462,392.851C22.117,390.595 22.338,388.553 24.541,386.677Z" style="fill:rgb(235,186,8);stroke:black;stroke-width:0.78px;"/>
                </g>
            </g>
            <g id="Flèche-Milieu" serif:id="Flèche Milieu">
                <g transform="matrix(1,0,0,1,8.89917,82.3762)">
                    <path d="M22.593,377.249L52.253,376.353C52.253,376.353 59.414,378.427 62.726,378.355C65.648,378.292 99.865,372.387 105.713,372.433C114.965,372.505 136.572,380.218 136.774,389.657C136.987,399.579 112.233,407.658 108.324,408.15C101.022,409.068 68.805,401.288 62.279,401.64C55.769,401.99 51.775,403.263 51.775,403.263L22.353,403.115C22.353,403.115 30.666,399.328 31.242,396.507C31.818,393.687 25.22,392.083 25.185,389.79C25.15,387.496 32.003,387.835 31.03,382.745C30.058,377.655 22.593,377.249 22.593,377.249Z" style="fill:rgb(235,186,8);stroke:black;stroke-width:0.75px;"/>
                </g>
                <g transform="matrix(1,0,0,0.898329,8.89917,122.318)">
                    <path d="M24.541,386.677L159.114,386.677L159.114,392.851L24.462,392.851C22.117,390.595 22.338,388.553 24.541,386.677Z" style="fill:rgb(235,186,8);stroke:black;stroke-width:0.78px;"/>
                </g>
            </g>
            <g id="Flèche-Haut" serif:id="Flèche Haut" transform="matrix(0.963618,0.267285,-0.267285,0.963618,145.595,-99.2586)">
                <g transform="matrix(1,0,0,1,8.89917,82.3762)">
                    <path d="M22.593,377.249L52.253,376.353C52.253,376.353 59.414,378.427 62.726,378.355C65.648,378.292 99.865,372.387 105.713,372.433C114.965,372.505 136.572,380.218 136.774,389.657C136.987,399.579 112.233,407.658 108.324,408.15C101.022,409.068 68.805,401.288 62.279,401.64C55.769,401.99 51.775,403.263 51.775,403.263L22.353,403.115C22.353,403.115 30.666,399.328 31.242,396.507C31.818,393.687 25.22,392.083 25.185,389.79C25.15,387.496 32.003,387.835 31.03,382.745C30.058,377.655 22.593,377.249 22.593,377.249Z" style="fill:rgb(235,186,8);stroke:black;stroke-width:0.75px;"/>
                </g>
                <g transform="matrix(1,0,0,0.898329,8.89917,122.318)">
                    <path d="M24.541,386.677L159.114,386.677L159.114,392.851L24.462,392.851C22.117,390.595 22.338,388.553 24.541,386.677Z" style="fill:rgb(235,186,8);stroke:black;stroke-width:0.78px;"/>
                </g>
            </g>
        </g>
        <g transform="matrix(1,0,0,1,8.89917,82.3762)">
            <path d="M293.828,210.387C353.796,184.344 417.28,184.767 482.806,212.623L501.111,186.652C496.133,181.033 494.344,171.167 495.6,157.248C490.896,164.065 483.153,169.629 469.635,172.811L469.097,196.782C458.177,191.075 445.544,187.575 433.205,186.327L442.649,163.659C429.899,155.993 424.341,146.231 425.409,134.537C420.567,146.279 412.937,154.652 401.593,158.539L405.966,183.096C394.156,181.559 382.346,181.426 370.536,182.729L374.436,158.28C363.292,155.315 356.152,147.688 352.212,136.334C349.834,148.346 344.247,157.019 334.299,161.158L343.052,186.714C331.285,188.085 319.583,190.527 307.952,195.859L307.239,171.076C295.333,170.747 286.47,166.169 281.12,155.271C283.502,166.391 282.61,175.787 275.4,184.637L293.828,210.387Z" style="fill:rgb(235,186,8);stroke:black;stroke-width:0.75px;"/>
        </g>
        <g id="Lion">
            <g transform="matrix(0.375,0,0,0.375,8.89917,82.3762)">
                <path d="M674.816,1584.62C667.223,1587.97 645.709,1656.12 686.765,1646.97C680.697,1630.07 683.604,1619.1 697.61,1614.12C709.224,1629.62 718.22,1630.47 724.996,1618.9C724.303,1645.1 731.139,1653.65 744.91,1645.94C752.688,1653.71 753.184,1668.2 752.275,1674.53C751.024,1683.24 729.081,1679.7 726.261,1680.24C723.036,1680.85 737.731,1690 742.93,1691.88C759.551,1697.88 778.016,1681.73 777.556,1664.1C777.342,1655.92 768.779,1641.07 768.779,1641.07C768.779,1641.07 771.315,1642.76 772.541,1643.82C775.386,1643.5 778.016,1642.33 780.008,1638.59C789.816,1643.16 795.262,1638.85 797.093,1627.19C795.437,1642.76 798.43,1652.74 807.899,1654.91C815.469,1654.61 818.63,1651.25 818.389,1645.55C829.393,1652.47 832.211,1665.14 824.774,1691.78C848.343,1693.7 850.569,1682.83 850.242,1657.95C849.918,1633.19 832.481,1629.09 823.985,1625.03C826.028,1623.47 828.481,1622.07 831.3,1620.82C832.828,1616.32 831.377,1611.92 825.572,1607.69C803.21,1614.87 786.796,1609.81 776.839,1591.46C788.218,1541.94 785.871,1500.89 761.326,1473.56C792.634,1482.44 819.026,1480.36 835.946,1457.54C838.289,1458.11 840.309,1458.32 842.913,1458.12C847.998,1467.09 860.49,1468.28 882.143,1454.88C860.073,1499.58 864.711,1519.19 883.245,1525.75C883.512,1501.79 887.545,1480.75 899.479,1465.84C907.669,1474.64 910.775,1484.83 911.206,1495.76C947.443,1523.4 924.526,1584.16 871.868,1553.14C882.228,1573.12 901.307,1582.32 938.073,1569.66C926.471,1585.33 911.532,1594.04 894.721,1598.84C921.608,1602.92 943.83,1597.15 959.866,1578.31C947.968,1594.1 947.627,1614.72 952.67,1637.6C956.903,1619.17 965.665,1605.65 984.393,1602.92C1000.32,1624.83 995.472,1640.38 970.327,1649.71C1001.54,1662 1013.82,1643.28 1012.51,1602.3C1022.57,1665.59 1043.49,1676.58 1067.77,1653.28C1055.01,1651.84 1043.6,1639.79 1039.97,1614.11C1051.26,1612.94 1062.55,1618.51 1073.85,1641.22C1075.54,1638.91 1077.85,1633.56 1081.64,1620.89C1084.64,1623.73 1088.6,1632.32 1093.6,1647.15C1105.36,1639.35 1106.66,1628.5 1102.14,1615.96C1131.98,1636.59 1081.2,1671.32 1133.49,1667.02C1148.88,1676.24 1143.76,1688.3 1130.02,1699.85C1150.99,1706.91 1181.55,1681.93 1160.81,1651.83C1172.55,1625.25 1137.38,1648.13 1131.48,1607.84C1147.39,1626.54 1163.3,1640.07 1179.21,1633.18C1191.21,1656.2 1198.39,1653.49 1204.23,1643.56C1211.8,1644.35 1226.28,1662.23 1204.44,1671.88C1227.41,1683.78 1265.13,1639.15 1217.99,1603.89C1175.06,1606.42 1160.77,1594.63 1149.46,1581.35C1187.04,1599.57 1225.72,1595.72 1208,1570.6C1216.71,1551.1 1231.8,1555.87 1254.02,1587.75C1262.16,1562.5 1230.89,1525.92 1195.49,1537.68C1170.65,1512.74 1174.49,1575.51 1141.35,1568.73C1084.2,1557.04 1123.9,1528.63 1027.58,1527.98C1063.38,1521.38 1080.09,1503.57 1073.34,1471.97C1085.43,1509.86 1095.96,1514.55 1106.09,1510.82C1088.54,1490.85 1080.46,1470.52 1090.12,1449.53C1106.22,1481.88 1120.58,1482.85 1134.67,1479.15C1116.38,1469.59 1103.82,1456.75 1104.39,1436.4C1127.28,1450.78 1138.01,1443.03 1145.9,1430.1C1107.91,1434.01 1095.45,1422.64 1086.79,1409C1144.52,1440.56 1156.01,1395.47 1114.71,1368.83C1132.37,1401.64 1116.47,1404.18 1089.83,1397.05C1069.08,1352.05 1040.35,1322.55 996.978,1321.48C985.448,1293.66 965.265,1275.87 930.419,1275.05C936.626,1268.25 939.128,1253.18 938.459,1231.06C1010.42,1189.6 1031.42,1256.05 1065.71,1200.88C1067.41,1224.6 1073.19,1231.59 1081.77,1227.14C1076.21,1220.77 1075.16,1210.6 1085.62,1190.72C1098.8,1200.1 1105.07,1212.51 1109.34,1225.8C1105.83,1202.24 1110.83,1186.98 1124.54,1180.21C1122.61,1208.65 1127.88,1224.27 1139.31,1228.92C1135.95,1221.99 1133.89,1214.4 1143.34,1200.89C1155.18,1210.06 1157.27,1229.52 1151.03,1257.8C1161.66,1259.9 1169.13,1251.38 1171.98,1227.35C1177.93,1232.79 1180.45,1244.85 1177.76,1266.93C1185.22,1273.5 1193.73,1279.24 1202.73,1284.61C1186.48,1306.12 1195.9,1308.49 1225.13,1296.11C1217.01,1313.65 1217.82,1325.76 1224.01,1334.61C1253.75,1332.46 1274.53,1354.67 1242.63,1360.26C1242.08,1370.23 1261.24,1371.57 1262.34,1369.98C1270.07,1409.25 1325.14,1408.86 1337.9,1382.34C1315.08,1385.39 1299.19,1380.37 1295.01,1359.22C1298.35,1361.37 1302.02,1364.09 1306.04,1367.45C1309.14,1355.18 1306.3,1344.07 1298.69,1333.87C1320.64,1318.62 1321.71,1378.41 1339.87,1346.31C1353.86,1351.8 1357.62,1364.38 1353.61,1381.5C1377.95,1369.13 1393.5,1353.73 1365.2,1322.99C1361.1,1296.95 1327.87,1309.42 1310.27,1290.96C1336.52,1290.81 1353.15,1286.06 1347.01,1270.41C1358.27,1266.37 1365.82,1268.51 1370.35,1279.97C1388.99,1264.84 1368.03,1237.08 1331.58,1239.11C1318.73,1234.38 1307.71,1247.59 1296.56,1264C1289.43,1252.97 1281.08,1245.43 1269.37,1240.14C1264.82,1211.77 1250.75,1183.58 1223.09,1155.64C1226.97,1183.39 1218.03,1180.97 1210.95,1182.91C1215.74,1178.34 1218.01,1171.62 1218.17,1161.62C1210.6,1139.91 1178.79,1124.86 1171.09,1107.56C1184.52,1115.77 1195.14,1116.12 1202.94,1108.59C1191.56,1104.63 1186.19,1097.74 1184.63,1088.99C1206.88,1081.51 1218.33,1111.5 1238,1090.83C1222.31,1092.3 1210,1089.2 1203.98,1077.54C1220.38,1075.29 1233.08,1077.31 1242.47,1083.14C1241.11,1074.27 1234.82,1066.39 1225.04,1059.21C1248.32,1058.15 1262.89,1065.43 1274.91,1078.88C1280.99,1068.28 1273.33,1054.26 1250.75,1037.43C1263.9,1034.82 1278.27,1043.44 1293.9,1063.56C1293.83,1053.97 1287.27,1041.57 1273.45,1026.05C1293.23,1044.72 1307.34,1045.62 1317.02,1032.66C1296.86,1032.15 1285.76,1024.63 1281.66,1011.71C1299,1009.93 1319.05,1017.5 1341.7,1034.06C1349.36,1014.48 1329.73,998.909 1303.16,984.915C1324.57,998.591 1341.08,999.346 1353.77,990.041C1337.35,985.35 1332.66,978.913 1336.4,971.222C1343.53,969.127 1351.93,972.848 1361.76,983.189C1364.18,977.931 1362.28,969.031 1356.71,957.04C1361.23,964.972 1367.52,971.791 1377.72,976.161C1383.84,972.655 1385.44,965.042 1384.06,954.721C1380.78,985.865 1406.65,987.139 1409.39,965.738C1416.33,966.606 1421.22,969.302 1423.25,974.545C1423.9,982.534 1422.92,990.522 1420.38,998.511C1423.86,1001.07 1425.9,1001.04 1428.22,998.407C1442.55,1071.39 1435.31,1158.02 1410.61,1266.84C1402.85,1340.13 1441.74,1393.16 1535.77,1386.04C1458.81,1387.9 1430.89,1331.7 1449.03,1220.95C1500.65,1041.35 1473.78,925.363 1418.54,846.99C1344.77,742.332 1220.39,704.739 1164.69,672.256C1090.39,628.922 1092.24,574.03 1123.09,521.124C1092.66,551.643 1070.48,580.231 1082.28,617.195C1115.12,720.131 1238.19,689.744 1361.42,851.692C1347.32,865.807 1339.79,880.182 1334.84,898.609C1320.76,897.81 1307.55,895.58 1304.12,895.454C1296.76,895.185 1200.89,944.854 1170.33,973.789L1170.26,973.765C1151.56,967.198 1133.32,946.559 1139.55,924.983C1150.67,926.121 1159.98,932.799 1167.09,946.161C1170.49,937.501 1166.85,929.475 1160.5,921.69C1175.6,941.149 1188.99,943.645 1201.27,935.258C1182.35,932.855 1169.42,919.405 1186.36,906.9C1190.01,904.064 1155.04,892.381 1138.4,893.001C1119.69,893.698 1084.25,880.876 1086.02,865.28C1087.72,850.336 1111.71,839.493 1130.65,840.446C1149.92,841.416 1175.76,847.508 1193.4,853.194C1210.1,858.578 1231.82,838.508 1234.55,820.373C1245.51,820.601 1247.97,809.961 1248.96,811.955C1227.42,782.858 1187.29,758.193 1132.81,736.947C1106.02,711.006 1076.9,699.342 1044.91,705.217C1052.25,710.885 1060.8,716.384 1070.26,721.757C1042.74,711.384 1022.57,710.363 1015.85,726.484C1009.07,729.739 1002.39,727.911 995.856,719.003C991.594,727.912 998.333,734.669 1017.02,739.091C996.314,741.619 986.341,757.023 976.973,780.946C962.052,791.141 949.787,785.625 941.438,765C936.018,791.345 943.793,803.373 980.801,792.403C943.538,803.585 923.107,816.416 923.478,831.93C935.821,823.496 956.557,822.754 955.923,826.43C955.304,830.02 943.462,872.242 908.802,830.811C913.639,851.389 929.084,861.002 953.573,854.602C906.393,861.703 896.829,879.284 910.454,905.611C921.902,870.937 935.397,886.498 948.994,904.598C919.881,931.173 889.407,923.455 858.635,908.231C868.554,931.143 890.015,942.504 923.153,942.18C915.653,948.581 912.768,957.176 913.937,967.697C926.895,949.512 941.255,973.004 941.111,980.217C940.931,989.248 930.824,1007.99 896.809,978.094C904.223,997.275 918.291,1010.31 943.921,1012.66C944.006,1020.38 944.501,1029.07 945.731,1039.51C948.268,1067.22 931.974,1081.82 906.293,1089.89C917.968,1094.54 927.963,1094.06 935.681,1090.64C912.309,1176.99 821.155,1202.2 767.493,1204.49C703.039,1207.25 662.427,1152.78 664.937,1125.29C669.64,1073.77 696.768,1058.07 715.718,1058.18C747.414,1058.39 772.651,1082.13 771.239,1098C769.884,1113.23 741.117,1138.53 724.923,1107.83C723.784,1124.33 729.145,1137.37 756.385,1138.74C778.924,1136.69 791.331,1126.76 794.405,1109.59C793.353,1096.15 789.208,1085.68 782.59,1077.18C792.746,1081.51 802.146,1084.55 811.288,1087.15C793.423,1073.02 782.597,1063.04 782.839,1059.58C789.625,1063.51 801.674,1063.69 808.461,1064.2C826.35,1059.3 834.729,1041.21 833.777,1031.03C832.823,1020.84 826.715,1011.04 814.711,1006.52C836.591,1040.59 796.65,1051.88 777.233,1043.85C757.944,1024.83 714.685,1033.7 714.685,1033.7C837.776,973.046 877.037,827.4 874.772,782.93C873.425,756.5 862.21,714.569 857.475,708.058C861.125,686.315 869.761,674.791 882.779,672.248C909.638,681.685 908.028,691.328 894.962,700.749C908.06,703.364 919.716,700.143 922.283,685.348C917.55,659.487 899.178,646.641 870.965,645.007C850.081,645.626 836.112,653.112 831.104,669.499C811.642,648.78 779.302,657.993 758.983,639.086C751.388,632.018 748.073,622.753 747.531,612.588C746.679,596.615 762.237,583.961 777.479,587.344C784.577,588.919 789.978,591.706 794.895,596.963C798.057,600.343 802.694,609.768 802.694,609.768C802.694,609.768 805.302,602.641 805.722,600.041C806.74,593.742 801.696,587.2 796.174,583.67C780.744,573.805 766.898,568.406 748.796,578.174C738.766,583.587 732.685,593.666 730.683,604.619C726.264,628.796 724.639,671.514 758.499,680.393C761.758,681.247 767.747,682.489 770.574,683.312C771.266,681.326 725.983,694.438 713.3,708.362C698.807,720.571 698.762,737.011 697.621,752.62C694.701,792.571 728.581,806.196 727.691,824.322C722.687,831.356 716.165,832.313 708.846,830.074C726.294,841.647 741.995,848.015 742.114,807.96C769.07,824.577 785.184,818.907 785.784,781.347C765.826,836.832 726.457,776.145 728.787,756.516C730.823,739.371 745.3,725.416 772.479,723.773C817.145,728.674 836.061,756.048 836.922,799.181C838.165,847.306 824.146,883.659 802.061,912.076C791.478,872.461 772.512,863.771 746.577,875.197C770.408,880.602 784.594,889.197 786.309,905.832C788.863,930.593 735.871,988.866 700.873,997.766C687.325,1001.21 681.136,1021.79 680.193,1030.77C680.008,1000.9 667.314,980.825 642.098,968.276C639.736,955.525 643.74,944.827 652.332,939.28C634.103,938.426 623.452,944.846 625.056,963.031C627.385,988.07 633.212,1002.42 641.614,1008.89C629.685,1006.28 623.022,1009.02 617.452,1012.87C635.231,1021.22 643.378,1029.72 642.335,1038.37C591.424,1186.4 739.701,1261.36 818.529,1221.03C812.166,1261.68 787.488,1288.12 769.14,1291.9C783.231,1298.68 797.321,1298.67 811.412,1289.21C790.882,1319.32 768.053,1329.11 743.299,1321.88C749.939,1340.33 764.972,1344.59 792.261,1328.12C775.926,1356.99 755.61,1362.45 728.546,1328.23C723.254,1339.13 724.913,1349.45 740.312,1358.64C706.624,1364.82 691.161,1344.29 678.017,1320.36C669.188,1335.85 670.698,1351.71 697.729,1368.48C657.017,1353.74 638.325,1361.12 633.633,1382.57C655.815,1370.51 670.197,1374.18 679.756,1387.58C661.941,1407.75 641.663,1406.34 619.467,1388.13C622.786,1404.58 638.277,1416.79 684.549,1418.27C666.522,1421.56 656.519,1429.46 652.707,1440.91C664.995,1436.26 675.877,1435.95 684.421,1442.85C652.618,1449.2 641.716,1461.16 641.387,1475.95C655.929,1463.99 668.404,1462.31 679.864,1465.69C669.302,1489.35 649.134,1491.31 624.387,1482.93C633.343,1501.49 648.177,1512.6 691.333,1487.83C662.053,1503.64 653.075,1522.35 659.509,1537.88C671.76,1523.2 684.029,1513.53 698.486,1513.71C688.715,1542.12 670.455,1552.52 647.899,1553.81C659.834,1563.62 679.42,1565.82 709.397,1557.69C686.955,1562.64 673.856,1571.44 670.1,1584.11C671.748,1584.24 673.32,1584.4 674.816,1584.62Z" style="fill:rgb(236,183,20);stroke:black;stroke-width:2.33px;"/>
            </g>
            <g transform="matrix(0.375,0,0,0.375,8.89917,82.3762)">
                <path d="M674.816,1584.62C695.339,1587.49 701.669,1598.01 697.61,1614.12" style="fill:rgb(236,183,20);stroke:black;stroke-width:2.33px;"/>
            </g>
            <g transform="matrix(0.375,0,0,0.375,8.89917,82.3762)">
                <path d="M744.91,1645.94C752.793,1638.11 760.776,1636.2 768.872,1641.12" style="fill:rgb(236,183,20);stroke:black;stroke-width:2.33px;"/>
            </g>
            <g transform="matrix(0.375,0,0,0.375,8.89917,82.3762)">
                <path d="M818.389,1645.55C815.151,1636.63 817.498,1629.99 823.985,1625.03" style="fill:rgb(236,183,20);stroke:black;stroke-width:2.33px;"/>
            </g>
            <g transform="matrix(0.375,0,0,0.375,8.89917,82.3762)">
                <path d="M1133.49,1667.02C1130.27,1654.77 1139.03,1649.51 1160.81,1651.83" style="fill:rgb(236,183,20);stroke:black;stroke-width:2.33px;"/>
            </g>
            <g transform="matrix(0.375,0,0,0.375,8.89917,82.3762)">
                <path d="M1204.23,1643.56C1194.21,1628.91 1196.86,1615.5 1217.99,1603.89" style="fill:rgb(236,183,20);stroke:black;stroke-width:2.33px;"/>
            </g>
            <g transform="matrix(0.375,0,0,0.375,8.89917,82.3762)">
                <path d="M1208.33,1570.56C1179.6,1566.19 1179.06,1554.22 1195.49,1537.68" style="fill:rgb(236,183,20);stroke:black;stroke-width:2.33px;"/>
            </g>
            <g transform="matrix(0.375,0,0,0.375,8.89917,82.3762)">
                <path d="M1262.96,1369.94C1266.77,1354.03 1275.29,1346.58 1295.01,1359.22" style="fill:rgb(236,183,20);stroke:black;stroke-width:2.33px;"/>
            </g>
            <g transform="matrix(0.375,0,0,0.375,8.89917,82.3762)">
                <path d="M1339.87,1346.31C1333.11,1342.58 1330.26,1335.62 1332.24,1326.52C1332.68,1318.37 1346.76,1319.24 1365.2,1322.99" style="fill:rgb(236,183,20);stroke:black;stroke-width:2.33px;"/>
            </g>
            <g transform="matrix(0.375,0,0,0.375,8.89917,82.3762)">
                <path d="M1347.01,1270.41C1329.52,1270.71 1326.49,1258.44 1331.58,1239.11" style="fill:rgb(236,183,20);stroke:black;stroke-width:2.33px;"/>
            </g>
            <g transform="matrix(0.375,0,0,0.375,8.89917,82.3762)">
                <path d="M1310.27,1290.96C1305.92,1280.03 1301.36,1271.41 1296.56,1264" style="fill:rgb(236,183,20);stroke:black;stroke-width:2.33px;"/>
            </g>
            <g transform="matrix(0.375,0,0,0.375,8.89917,82.3762)">
                <path d="M1410.22,965.593C1388.49,969.474 1385.75,939.55 1410.32,938.558" style="fill:none;stroke:black;stroke-width:2.33px;"/>
            </g>
            <g transform="matrix(0.375,0,0,0.375,8.89917,82.3762)">
                <path d="M1361.42,851.692C1368.94,861.567 1373.48,868.717 1381,880.123" style="fill:none;stroke:black;stroke-width:2.33px;"/>
            </g>
            <g transform="matrix(0.375,0,0,0.375,8.89917,82.3762)">
                <path d="M658.418,1027.4C656.93,1021.34 652.863,1015.21 641.614,1008.89" style="fill:none;stroke:black;stroke-width:2.33px;"/>
            </g>
            <g transform="matrix(0.375,0,0,0.375,8.89917,82.3762)">
                <path d="M1170.26,973.765C1173.47,974.892 1176.7,975.605 1179.81,975.837C1188.39,976.475 1196.16,973.465 1200.57,965.419C1207.6,974.619 1207.04,982.605 1197.32,989.125C1183.44,993.74 1170.51,992.818 1158.17,988.543C1186.22,1010.49 1191.65,1031.61 1188.54,1052.42C1198.15,1058.04 1207.54,1058.08 1216.77,1053.93C1210.11,1067.42 1199.62,1073.43 1184.04,1069.48C1171,1084.44 1166.97,1094.04 1169.42,1099.8C1169.28,1102.62 1169.9,1105.35 1171.08,1108.01" style="fill:none;stroke:black;stroke-width:2.33px;"/>
            </g>
            <g transform="matrix(0.375,0,0,0.375,8.89917,82.3762)">
                <path d="M1217.55,1054.24C1220.23,1055.86 1222.73,1057.52 1225.04,1059.21" style="fill:none;stroke:black;stroke-width:2.33px;"/>
            </g>
            <g transform="matrix(0.375,0,0,0.375,8.89917,82.3762)">
                <path d="M1403.16,825.559C1432.47,820.129 1450.61,828.22 1450.93,857.875C1440.3,847.159 1429.18,843.429 1418.54,846.99L1403.16,825.559Z" style="fill:rgb(236,183,21);stroke:black;stroke-width:2.33px;"/>
            </g>
            <g transform="matrix(0.375,0,0,0.375,8.89917,82.3762)">
                <path d="M1153.85,759.243C1155.57,766.922 1161.75,778.13 1161.56,781.029C1161.52,781.588 1158.32,778.99 1153.77,775.896" style="fill:none;stroke:black;stroke-width:1.99px;"/>
            </g>
            <g transform="matrix(0.375,0,0,0.375,8.89917,82.3762)">
                <path d="M1153.77,775.896C1147.81,771.852 1139.53,766.961 1132.95,767.166C1124.83,767.419 1111.27,777.932 1112.81,782.395C1114.36,786.857 1135.45,792.993 1142.22,793.941C1152.63,795.398 1153.78,783.862 1153.77,775.896Z" style="fill:rgb(227,29,2);stroke:black;stroke-width:1.99px;"/>
            </g>
            <g transform="matrix(0.375,0,0,0.375,8.89917,82.3762)">
                <path d="M1112.81,782.395L1099.51,776.835" style="fill:none;stroke:black;stroke-width:1.99px;"/>
            </g>
            <g transform="matrix(1,0,0,1,8.89917,82.3762)">
                <path d="M390.924,292.4C391.072,285.599 393.147,283.412 397.858,287.534L393.488,282.144" style="fill:none;stroke:black;stroke-width:0.75px;"/>
            </g>
            <g transform="matrix(0.375,0,0,0.375,8.89917,82.3762)">
                <path d="M1152.41,893.775C1159.47,889.872 1166.52,882.897 1173.58,873.465C1169.83,882.541 1168.98,891.105 1173.06,898.8L1152.41,893.775Z" style="fill:rgb(236,183,20);stroke:black;stroke-width:2.33px;"/>
            </g>
            <g transform="matrix(1,0,0,1,8.89917,82.3762)">
                <path d="M429.746,308.856C422.742,306.138 416.623,306.466 411.122,308.923" style="fill:none;stroke:black;stroke-width:0.75px;"/>
            </g>
            <g transform="matrix(1,0,0,1,8.89917,82.3762)">
                <path d="M404.98,314.074C398.894,319.738 398.137,325.279 403.812,330.671" style="fill:none;stroke:black;stroke-width:0.75px;"/>
            </g>
            <g transform="matrix(0.375,0,0,0.375,8.89917,82.3762)">
                <path d="M1405.52,927.413C1376.62,929.515 1377.25,924.719 1365.35,922.421" style="fill:none;stroke:black;stroke-width:2.33px;"/>
            </g>
            <g transform="matrix(0.375,0,0,0.375,8.89917,82.3762)">
                <path d="M1424.22,874.779C1405.04,888.982 1398.19,899.089 1414.2,904.465" style="fill:none;stroke:black;stroke-width:2.33px;"/>
            </g>
            <g transform="matrix(0.375,0,0,0.375,8.89917,82.3762)">
                <path d="M1334.84,898.609C1350.31,899.486 1366.84,898.636 1372.66,891.375C1380.79,881.243 1390.12,868.02 1412.08,871.123C1415.14,866.877 1418.63,865.649 1424.22,874.779C1453.19,894.689 1446.8,914.098 1436.68,932.189C1434.65,913.746 1428.72,901.875 1414.2,904.465C1417.5,914.436 1412.15,922.021 1405.52,927.413" style="fill:none;stroke:black;stroke-width:2.33px;"/>
            </g>
            <g transform="matrix(0.375,0,0,0.375,8.89917,82.3762)">
                <path d="M1428.22,998.407C1423.27,973.234 1415.77,949.687 1405.52,927.413" style="fill:none;stroke:black;stroke-width:2.33px;"/>
            </g>
            <g transform="matrix(0.375,0,0,0.375,8.89917,82.3762)">
                <path d="M956.422,1013.77C952.893,1015.14 948.982,1014.93 943.921,1012.66" style="fill:none;stroke:black;stroke-width:2.33px;"/>
            </g>
            <g transform="matrix(0.375,0,0,0.375,8.89917,82.3762)">
                <path d="M986.272,1045.65C974.975,1036.87 972.046,1024.18 975.125,1008.69" style="fill:none;stroke:black;stroke-width:2.33px;"/>
            </g>
            <g transform="matrix(0.375,0,0,0.375,8.89917,82.3762)">
                <path d="M1210.95,1182.91C1204.67,1158.34 1187.02,1146.06 1163.94,1139.64C1148.05,1138.41 1137.26,1125.59 1130.19,1104.28C1132.73,1148.38 1118.21,1166.23 1089.05,1161.54C1113.93,1151.84 1115.31,1130.27 1097.89,1099.21C1103.54,1140.39 1091.81,1151.2 1070.33,1144.94C1091.96,1129.26 1089.76,1111.86 1063.72,1092.76C1053.96,1103.52 1051.7,1115.68 1064.69,1130.68C1036.35,1113.55 1021.25,1090.83 1012.05,1065.63C997.624,1083.11 976.623,1082.88 952.634,1074.6C971.394,1072.28 983.749,1064.21 985.452,1046.57C955.917,1035.24 950.604,1010.85 959.7,978.684" style="fill:none;stroke:black;stroke-width:2.33px;"/>
            </g>
            <g transform="matrix(0.375,0,0,0.375,8.89917,82.3762)">
                <path d="M930.419,1275.05C922.572,1284.78 916.877,1297.56 917.172,1318.86C949.641,1364.43 948.064,1408.55 927.914,1451.87C957.878,1510.15 1008.15,1476.42 981.629,1444.15C1017.52,1461.64 1002.08,1489.05 986.404,1499C972.321,1507.94 914.029,1486.57 913.067,1440.42C907.26,1446.65 905.292,1458.77 908.124,1478.25" style="fill:none;stroke:black;stroke-width:2.33px;"/>
            </g>
            <g transform="matrix(0.375,0,0,0.375,8.89917,82.3762)">
                <path d="M971.79,1201.32C942.212,1203.6 928.965,1212.63 938.459,1231.06" style="fill:none;stroke:black;stroke-width:2.33px;"/>
            </g>
            <g transform="matrix(0.375,0,0,0.375,8.89917,82.3762)">
                <path d="M1104.39,1436.4C1100.09,1430.79 1092.67,1427.11 1083.75,1424.35" style="fill:none;stroke:black;stroke-width:2.33px;"/>
            </g>
            <g transform="matrix(0.375,0,0,0.375,8.89917,82.3762)">
                <path d="M1085.62,1190.72L1040.91,1160.55" style="fill:none;stroke:black;stroke-width:2.33px;"/>
            </g>
            <g transform="matrix(0.375,0,0,0.375,8.89917,82.3762)">
                <path d="M1012.05,1065.63C1020.02,1060.83 1019.47,1041.09 1016.05,1016.36" style="fill:none;stroke:black;stroke-width:2.33px;"/>
            </g>
            <g transform="matrix(0.375,0,0,0.375,8.89917,82.3762)">
                <path d="M1139.55,924.983C1126.58,926.081 1128.89,936.709 1138.94,952.16C1123.79,942.614 1112.7,930.425 1108.35,913.841C1107.23,925.55 1099.25,929.39 1085.79,926.938C1094.8,922.095 1096.7,913.971 1094.07,903.76C1080.57,921.705 1062.94,927.32 1039.58,915.765C1053.82,915.027 1066.03,908.663 1073.98,890.494C1062.91,892.742 1053.13,894.44 1045.24,895.336C1050.47,886.355 1051.04,876.769 1044.81,866.298C1033.26,878.384 1019.76,878.575 1004.9,870.453C1030.96,868.23 1045.05,845.5 1043.43,817.852C1043.16,813.198 1026.21,818.781 1020.32,828.919C1021.33,814.459 1032.01,802.256 1053,792.46C1032.8,794.669 1021.94,788.038 1022.73,770.35C1022.7,757.692 1031.62,743.184 1045.74,740.985C1054.02,739.697 1066.11,747.752 1070.11,753.687" style="fill:none;stroke:black;stroke-width:2.33px;"/>
            </g>
            <g transform="matrix(0.375,0,0,0.375,8.89917,82.3762)">
                <path d="M1228.16,805.545C1229.23,804.734 1227.09,812.546 1229.31,817.148C1230.2,818.988 1231.79,820.316 1234.55,820.373" style="fill:none;stroke:black;stroke-width:2.33px;"/>
            </g>
            <g transform="matrix(0.375,0,0,0.375,8.89917,82.3762)">
                <path d="M770.574,683.312C792.878,689.799 799.222,695.033 802.11,702.276" style="fill:none;stroke:black;stroke-width:2.33px;"/>
            </g>
            <g transform="matrix(0.375,0,0,0.375,8.89917,82.3762)">
                <path d="M1193.4,853.194C1185.99,853.51 1178.86,858.383 1171.91,866.374C1173.35,859.466 1172.84,852.85 1169.67,846.632L1193.4,853.194Z" style="fill:rgb(236,183,20);stroke:black;stroke-width:2.33px;"/>
            </g>
            <g transform="matrix(0.375,0,0,0.375,8.89917,82.3762)">
                <path d="M862.262,1451.42C855.357,1455.42 849.054,1457.67 843.368,1458.1" style="fill:none;stroke:black;stroke-width:2.33px;"/>
            </g>
            <g transform="matrix(0.375,0,0,0.375,8.89917,82.3762)">
                <path d="M835.946,1457.54C825.594,1455.02 817.806,1444.99 812.724,1427.02" style="fill:none;stroke:black;stroke-width:2.33px;"/>
            </g>
        </g>
    </g>
</svg>
