<?xml version="1.0" encoding="UTF-8" standalone="no"?>
<!DOCTYPE svg PUBLIC "-//W3C//DTD SVG 1.1//EN" "http://www.w3.org/Graphics/SVG/1.1/DTD/svg11.dtd">
<svg width="100%" height="100%" viewBox="0 0 300 300" version="1.1" xmlns="http://www.w3.org/2000/svg" xmlns:xlink="http://www.w3.org/1999/xlink" xml:space="preserve" xmlns:serif="http://www.serif.com/" style="fill-rule:evenodd;clip-rule:evenodd;stroke-linejoin:round;stroke-miterlimit:2;">
    <g transform="matrix(0.985098,0,0,0.985098,1.63499,1.93637)">
        <g id="Calque1">
            <rect x="-1.66" y="-2.023" width="304.538" height="304.653" style="fill:rgb(226,226,226);"/>
        </g>
    </g>
    <g transform="matrix(0.401786,0,0,0.401786,59.9999,47.1428)">
        <g>
            <path d="M224,256C294.7,256 352,198.69 352,128C352,57.31 294.7,0 224,0C153.3,0 96,57.31 96,128C96,198.69 153.3,256 224,256ZM274.7,304L173.3,304C77.61,304 0,381.6 0,477.3C0,496.44 15.52,511.97 34.66,511.97L413.36,511.97C432.5,512 448,496.5 448,477.3C448,381.6 370.4,304 274.7,304Z" style="fill-rule:nonzero;"/>
        </g>
    </g>
</svg>
