<?xml version="1.0" encoding="UTF-8" standalone="no"?>
<!DOCTYPE svg PUBLIC "-//W3C//DTD SVG 1.1//EN" "http://www.w3.org/Graphics/SVG/1.1/DTD/svg11.dtd">
<svg width="100%" height="100%" viewBox="0 0 200 600" version="1.1" xmlns="http://www.w3.org/2000/svg" xmlns:xlink="http://www.w3.org/1999/xlink" xml:space="preserve" xmlns:serif="http://www.serif.com/" style="fill-rule:evenodd;clip-rule:evenodd;stroke-linecap:round;stroke-linejoin:round;stroke-miterlimit:1.5;">
    <g transform="matrix(1,0,0,1,-500,-385)">
        <g id="Cible" transform="matrix(1,0,0,1,-0.273693,396.006)">
            <g transform="matrix(1.65363,0,0,1.63098,-483.738,-219.518)">
                <ellipse cx="655.533" cy="434.409" rx="54.426" ry="55.182" style="fill:rgb(4,178,233);stroke:black;stroke-width:0.81px;"/>
            </g>
            <g transform="matrix(1.32291,0,0,1.30478,-266.936,-77.8159)">
                <ellipse cx="655.533" cy="434.409" rx="54.426" ry="55.182" style="fill:rgb(238,49,27);stroke:black;stroke-width:1.01px;"/>
            </g>
            <g transform="matrix(0.955433,0,0,0.942344,-26.0443,79.6313)">
                <ellipse cx="655.533" cy="434.409" rx="54.426" ry="55.182" style="fill:rgb(238,49,27);stroke:black;stroke-width:1.41px;"/>
            </g>
            <g transform="matrix(0.64308,0,0,0.63427,178.713,213.461)">
                <ellipse cx="655.533" cy="434.409" rx="54.426" ry="55.182" style="fill:rgb(252,243,24);stroke:black;stroke-width:2.09px;"/>
            </g>
            <g transform="matrix(0.32154,0,0,0.317135,389.494,351.228)">
                <ellipse cx="655.533" cy="434.409" rx="54.426" ry="55.182" style="fill:rgb(252,243,24);stroke:black;stroke-width:4.18px;"/>
            </g>
        </g>
        <g id="Cible1" serif:id="Cible" transform="matrix(1,0,0,1,-0.273693,196.006)">
            <g transform="matrix(1.65363,0,0,1.63098,-483.738,-219.518)">
                <ellipse cx="655.533" cy="434.409" rx="54.426" ry="55.182" style="fill:rgb(4,178,233);stroke:black;stroke-width:0.81px;"/>
            </g>
            <g transform="matrix(1.32291,0,0,1.30478,-266.936,-77.8159)">
                <ellipse cx="655.533" cy="434.409" rx="54.426" ry="55.182" style="fill:rgb(238,49,27);stroke:black;stroke-width:1.01px;"/>
            </g>
            <g transform="matrix(0.955433,0,0,0.942344,-26.0443,79.6313)">
                <ellipse cx="655.533" cy="434.409" rx="54.426" ry="55.182" style="fill:rgb(238,49,27);stroke:black;stroke-width:1.41px;"/>
            </g>
            <g transform="matrix(0.64308,0,0,0.63427,178.713,213.461)">
                <ellipse cx="655.533" cy="434.409" rx="54.426" ry="55.182" style="fill:rgb(252,243,24);stroke:black;stroke-width:2.09px;"/>
            </g>
            <g transform="matrix(0.32154,0,0,0.317135,389.494,351.228)">
                <ellipse cx="655.533" cy="434.409" rx="54.426" ry="55.182" style="fill:rgb(252,243,24);stroke:black;stroke-width:4.18px;"/>
            </g>
        </g>
        <g id="Cible2" serif:id="Cible" transform="matrix(1,0,0,1,-0.273693,-3.99384)">
            <g transform="matrix(1.65363,0,0,1.63098,-483.738,-219.518)">
                <ellipse cx="655.533" cy="434.409" rx="54.426" ry="55.182" style="fill:rgb(4,178,233);stroke:black;stroke-width:0.81px;"/>
            </g>
            <g transform="matrix(1.32291,0,0,1.30478,-266.936,-77.8159)">
                <ellipse cx="655.533" cy="434.409" rx="54.426" ry="55.182" style="fill:rgb(238,49,27);stroke:black;stroke-width:1.01px;"/>
            </g>
            <g transform="matrix(0.955433,0,0,0.942344,-26.0443,79.6313)">
                <ellipse cx="655.533" cy="434.409" rx="54.426" ry="55.182" style="fill:rgb(238,49,27);stroke:black;stroke-width:1.41px;"/>
            </g>
            <g transform="matrix(0.64308,0,0,0.63427,178.713,213.461)">
                <ellipse cx="655.533" cy="434.409" rx="54.426" ry="55.182" style="fill:rgb(252,243,24);stroke:black;stroke-width:2.09px;"/>
            </g>
            <g transform="matrix(0.32154,0,0,0.317135,389.494,351.228)">
                <ellipse cx="655.533" cy="434.409" rx="54.426" ry="55.182" style="fill:rgb(252,243,24);stroke:black;stroke-width:4.18px;"/>
            </g>
        </g>
    </g>
</svg>
