<?xml version="1.0" encoding="utf-8"?>
<!-- Generator: Adobe Illustrator 26.1.0, SVG Export Plug-In . SVG Version: 6.00 Build 0)  -->
<svg version="1.1" id="Calque_1" xmlns="http://www.w3.org/2000/svg" xmlns:xlink="http://www.w3.org/1999/xlink" x="0px" y="0px"
	 viewBox="0 0 433 99.2" style="enable-background:new 0 0 433 99.2;" xml:space="preserve">
<style type="text/css">
	.st0{fill-rule:evenodd;clip-rule:evenodd;fill:#FFFFFF;}
	.st1{fill-rule:evenodd;clip-rule:evenodd;fill:#D64031;}
	.st2{fill:#FFFFFF;}
</style>
<g>
	<g>
		<path class="st0" d="M55.7,33.4c0,0,0,3.5,2.5,3.6c14,0.7,8.4,14.4,8.4,14.4S81.1,33.4,55.7,33.4"/>
		<path class="st0" d="M62.9,51.4c0,0-20.8-2.2-20.8,2.8c0,3.7,6.4,11.6,6.4,11.6S34,58.6,34,50.2C34,44.2,62.9,51.4,62.9,51.4"/>
		<path class="st0" d="M113.3,55c0,0,0-3.6-25.2-3.6c-21.6,0-25.2,5.7-18,12.9C70.1,64.4,70.8,53.6,113.3,55"/>
		<path class="st1" d="M95.2,98.2h1.6c6.4-11.2,13.6-28.5,13.6-43.2C110.5,33.4,94.6,5.7,89,1h-0.9c2.8,3.8,18,22.8,18,54.1
			C106.1,74.3,100.3,89,95.2,98.2"/>
	</g>
	<g>
		<path class="st2" d="M151,42.2h-12.4l-2.5,8.9h-3.4l3.4-12.2c0.2-0.6,0.3-1.2,0.5-1.7c0.5-1.6,1.4-3,2.7-4c1.2-1,2.9-1.8,4.4-2.1
			c1.1-0.2,2.5-0.3,4.2-0.3h6.3l-0.7,2.6h-6.5c-2.1,0-3.2,0.2-4.4,0.9c-1.4,0.8-2.3,2.1-2.9,4.1l-0.3,1.2h12.4L151,42.2"/>
		<path class="st2" d="M163,34.5h-2.2l4.2-4h3.5L163,34.5 M165.2,44.6h-9.3c-0.4,1.5-0.4,2.4,0.2,3.1c0.2,0.4,0.6,0.6,1,0.7
			c0.5,0.2,1.6,0.2,2.5,0.2h4.4l-0.7,2.3h-5.3c-2.2,0-3.2-0.2-4.1-0.8c-1.5-1.1-1.9-3.4-1.1-6.2c1.4-5,5-7.7,10.3-7.7h4.4l-0.7,2.3
			h-4c-2.2,0-3.3,0.3-4.3,1.1c-0.8,0.6-1.4,1.4-2,2.6h9.3L165.2,44.6z"/>
		<path class="st2" d="M181.4,36.3h-3.5c-3.2,0-5.5,0.8-7.2,2.6c-1.2,1.3-2.3,3.2-2.8,5.1c-0.9,3.3-0.2,5.8,1.8,6.6
			c0.9,0.4,1.9,0.5,3.7,0.5h6.9l5.7-20.2h-3.1L181.4,36.3 M177.9,48.7h-3.8c-3.1,0-3.9-1.4-2.9-5.1c0.6-2.1,1.5-3.5,2.8-4.2
			c0.9-0.6,1.9-0.8,3.5-0.8h3.3L177.9,48.7z"/>
		<path class="st2" d="M195.8,34.5h-2.2l4.2-4h3.5L195.8,34.5 M198,44.6h-9.3c-0.4,1.5-0.4,2.4,0.2,3.1c0.2,0.4,0.6,0.6,1,0.7
			c0.5,0.2,1.6,0.2,2.5,0.2h4.4l-0.7,2.3h-5.3c-2.2,0-3.2-0.2-4.1-0.8c-1.5-1.1-1.9-3.4-1.1-6.2c1.4-5,5-7.7,10.3-7.7h4.5l-0.7,2.3
			h-4c-2.2,0-3.3,0.3-4.3,1.1c-0.8,0.6-1.4,1.4-2,2.6h9.3L198,44.6z"/>
		<path class="st2" d="M207.9,36.3c2.6,0,3.7,0.3,4.4,1.2c0.7,0.8,0.7,1.8,0.1,4.1l-0.4,1.4h-2.9l0.4-1.4c0.6-2.1,0.2-2.8-2-2.8
			h-1.2L202.9,51h-3.1l4.1-14.7H207.9"/>
		<path class="st2" d="M225.2,42.1h-5.5c-2.6,0-3.9,0.3-5.1,1.4c-0.9,0.8-1.7,1.9-2,3.2c-0.6,2.1,0.1,3.6,1.7,4.1
			c1,0.3,1.2,0.3,3.6,0.3h7.8l2.6-9.3c0.6-2.2,0.7-3.2,0.2-4.1c-0.6-1-1.7-1.4-4.5-1.4h-7.9l-0.7,2.3h7.3c3,0,3.3,0.5,2.6,3.1
			L225.2,42.1 M224.6,44.4l-1.2,4.3h-5.1c-2.2,0-2.9-0.6-2.5-2.1c0.5-1.6,1.4-2.2,3.7-2.2H224.6z"/>
		<path class="st2" d="M236.9,30.8h3.1l-1.5,5.5h4.5l-0.7,2.3h-4.5l-2.2,7.8c-0.3,1.2-0.4,1.6-0.1,1.9c0.3,0.3,0.8,0.4,2.1,0.4h1.8
			l-0.7,2.3h-3c-2,0-2.7-0.2-3.3-0.9c-0.3-0.3-0.4-0.7-0.5-1.1c0-0.5,0.2-1.6,0.4-2.5l2.2-8h-3l0.7-2.3h3L236.9,30.8"/>
		<path class="st2" d="M247.6,30.8h3.1l-0.9,3.1h-3.1L247.6,30.8 M249.1,36.3L245,51h-3.1l4.1-14.7H249.1z"/>
		<path class="st2" d="M250.3,44c-1.3,4.6,0.8,7.2,5.9,7.2c5,0,8.7-2.8,10-7.4c1.4-4.9-0.6-7.6-5.6-7.6
			C255.4,36.1,251.7,39,250.3,44 M253.5,43.8c1-3.4,3.1-5.2,6.2-5.2c3,0,4.2,1.9,3.3,5.2c-0.9,3.3-3,5-6.2,5
			C253.7,48.8,252.6,47.1,253.5,43.8z"/>
		<path class="st2" d="M278.7,36.3c4.5,0,5.8,1.6,4.6,6l-2.5,8.8h-3.1l2.4-8.5c0.8-2.9,0.2-3.9-2.6-3.9H274L270.5,51h-3.1l4.1-14.7
			H278.7"/>
		<path class="st2" d="M311,42.2h-12.4l-2.5,8.9h-3.4l3.4-12.2c0.2-0.6,0.3-1.2,0.5-1.7c0.5-1.6,1.4-3,2.7-4c1.2-1,2.9-1.8,4.4-2.1
			c1.1-0.2,2.5-0.3,4.2-0.3h6.3l-0.7,2.6H307c-2.1,0-3.2,0.2-4.4,0.9c-1.4,0.8-2.3,2.1-2.9,4.1l-0.3,1.2h12.4L311,42.2"/>
		<path class="st2" d="M319.5,36.3c2.6,0,3.7,0.3,4.4,1.2c0.7,0.8,0.7,1.8,0.1,4.1l-0.4,1.4h-2.9l0.4-1.4c0.6-2.1,0.2-2.8-2-2.8
			h-1.2L314.4,51h-3.1l4.1-14.7H319.5"/>
		<path class="st2" d="M336.8,42.1h-5.5c-2.6,0-3.9,0.3-5.1,1.4c-0.9,0.8-1.7,1.9-2,3.2c-0.6,2.1,0.1,3.6,1.7,4.1
			c1,0.3,1.2,0.3,3.6,0.3h7.8l2.6-9.3c0.6-2.2,0.7-3.2,0.2-4.1c-0.6-1-1.7-1.4-4.5-1.4h-7.9l-0.7,2.3h7.3c3,0,3.3,0.5,2.6,3.1
			L336.8,42.1 M336.1,44.4l-1.2,4.3h-5.1c-2.2,0-2.9-0.6-2.5-2.1c0.5-1.6,1.4-2.2,3.7-2.2H336.1z"/>
		<path class="st2" d="M352.8,36.3c4.5,0,5.8,1.6,4.6,6l-2.5,8.8h-3.1l2.4-8.5c0.8-2.9,0.2-3.9-2.6-3.9h-3.6L344.6,51h-3.1l4.1-14.7
			H352.8"/>
		<path class="st2" d="M365.9,52.3h0.3c1.5,0,2.1,0.7,1.7,2.1c-0.4,1.5-1.6,2.2-3.8,2.2h-1.6l0.4-1.3h1.5c1,0,1.5-0.3,1.7-0.9
			c0.2-0.6-0.2-0.8-1.2-0.8h-0.7l0.7-2.5h-0.1c-0.1,0-0.3,0-0.5-0.1c-0.8-0.1-1.5-0.2-2-0.3c-2.2-0.6-3.1-3.4-2.2-6.7
			c0.7-2.3,1.9-4.3,3.6-5.7c1.8-1.4,3.5-2,6.4-2h4.9l-0.7,2.3h-4.9c-3.4,0-5.1,1.4-6.1,5.1c-0.4,1.5-0.5,2.5-0.3,3.4
			c0.4,1.2,1.3,1.6,3.5,1.6h4.9l-0.7,2.3h-4.6L365.9,52.3"/>
		<path class="st2" d="M387,42.1h-5.5c-2.6,0-3.9,0.3-5.1,1.4c-0.9,0.8-1.7,1.9-2,3.2c-0.6,2.1,0.1,3.6,1.7,4.1
			c1,0.3,1.2,0.3,3.6,0.3h7.8l2.6-9.3c0.6-2.2,0.7-3.2,0.2-4.1c-0.6-1-1.7-1.4-4.5-1.4h-7.9l-0.7,2.3h7.3c3,0,3.3,0.5,2.6,3.1
			L387,42.1 M386.3,44.4l-1.2,4.3H380c-2.2,0-2.9-0.6-2.5-2.1c0.5-1.6,1.4-2.2,3.7-2.2H386.3z"/>
		<path class="st2" d="M397.4,30.8h3.1l-0.9,3.1h-3.1L397.4,30.8 M399,36.3L394.8,51h-3.1l4.2-14.7H399z"/>
		<path class="st2" d="M415.3,38.6h-7c-1.7,0-2,0-2.5,0.2c-0.6,0.2-1.2,0.9-1.5,1.9c-0.2,0.6-0.1,1.1,0.1,1.4
			c0.3,0.3,0.9,0.4,2.5,0.4h2.1l1.7,0c1.7,0,2.3,0.2,2.8,0.8c0.5,0.6,0.6,1.9,0.2,3.3c-0.4,1.5-1.1,2.6-2.1,3.4
			c-0.5,0.4-1.1,0.7-1.7,0.8c-0.8,0.2-1.2,0.2-3.2,0.2h-8.2l0.7-2.3h7.4c1.1,0,1.8,0,2.2-0.1c0.9-0.1,1.3-0.6,1.6-1.8
			c0.2-0.7,0.2-1.2-0.1-1.5c-0.3-0.2-0.6-0.3-2.6-0.3h-1.3c-2.6,0-3.1,0-3.9-0.3c-1.4-0.5-2-2.2-1.4-4.1c0.4-1.3,1.2-2.5,2.2-3.2
			c1.1-0.8,2.4-1.1,4.8-1.1h7.8L415.3,38.6"/>
		<path class="st2" d="M429.2,44.6h-9.3c-0.4,1.5-0.4,2.4,0.2,3.1c0.2,0.4,0.6,0.6,1,0.7c0.5,0.2,1.6,0.2,2.5,0.2h4.5l-0.7,2.3h-5.3
			c-2.2,0-3.2-0.2-4.1-0.8c-1.5-1.1-1.9-3.4-1.1-6.2c1.4-5,5-7.7,10.3-7.7h4.4l-0.7,2.3h-4c-2.2,0-3.3,0.3-4.3,1.1
			c-0.8,0.6-1.4,1.4-2,2.6h9.3L429.2,44.6"/>
		<polyline class="st2" points="254.8,59.4 251.5,63.5 249.9,63.5 252.5,59.7 251.5,59.7 252.4,56.4 255.6,56.4 254.8,59.4 		"/>
		<path class="st2" d="M141.2,61.9h-3.5c-3.2,0-5.5,0.8-7.2,2.6c-1.2,1.3-2.3,3.2-2.8,5.1c-0.9,3.3-0.2,5.8,1.8,6.6
			c0.9,0.4,1.9,0.5,3.7,0.5h6.9l5.7-20.2h-3.1L141.2,61.9 M137.7,74.3h-3.8c-3.1,0-3.9-1.4-2.9-5.1c0.6-2.1,1.5-3.4,2.8-4.2
			c0.9-0.6,1.9-0.8,3.5-0.8h3.3L137.7,74.3z"/>
		<path class="st2" d="M157.7,70.2h-9.3c-0.4,1.5-0.4,2.4,0.2,3.1c0.2,0.4,0.6,0.6,1,0.7c0.5,0.2,1.6,0.2,2.5,0.2h4.4l-0.7,2.3h-5.3
			c-2.2,0-3.2-0.2-4.1-0.8c-1.5-1.1-1.9-3.4-1.1-6.2c1.4-5,5-7.7,10.3-7.7h4.4l-0.7,2.3h-4c-2.2,0-3.3,0.3-4.3,1.1
			c-0.8,0.6-1.4,1.4-2,2.6h9.3L157.7,70.2"/>
		<polyline class="st2" points="170.4,59 171.1,56.4 189.1,56.4 188.4,59 181.1,59 176.2,76.6 172.8,76.6 177.7,59 170.4,59 		"/>
		<path class="st2" d="M191.4,56.4h3.1l-0.9,3.1h-3.1L191.4,56.4 M193,61.9l-4.1,14.7h-3.1l4.1-14.7H193z"/>
		<path class="st2" d="M201.3,61.9c2.6,0,3.7,0.3,4.4,1.1c0.7,0.8,0.7,1.8,0.1,4.1l-0.4,1.4h-2.9l0.4-1.4c0.6-2.1,0.2-2.8-2-2.8
			h-1.2l-3.4,12.3h-3.1l4.1-14.7H201.3"/>
		<path class="st2" d="M225.7,56h-3.5l3.3,4h2.3L225.7,56 M226.9,67.6h-5.5c-2.6,0-3.9,0.3-5.1,1.4c-0.9,0.8-1.7,1.9-2,3.2
			c-0.6,2.1,0.1,3.6,1.7,4.1c1,0.3,1.2,0.3,3.6,0.3h7.8l2.6-9.3c0.6-2.2,0.7-3.2,0.2-4.1c-0.6-1-1.7-1.4-4.5-1.4h-7.9l-0.7,2.3h7.3
			c3,0,3.3,0.5,2.6,3.1L226.9,67.6z M226.2,70l-1.2,4.3h-5.1c-2.2,0-2.9-0.6-2.5-2.1c0.5-1.6,1.4-2.2,3.7-2.2H226.2z"/>
		<polyline class="st2" points="239.5,76.6 245.2,56.4 248.3,56.4 242.6,76.6 239.5,76.6 		"/>
		<path class="st2" d="M249.3,76.6h3.6l3.7-5.3h10l0.7,5.3h3.6l-2.7-20.2h-4.4L249.3,76.6 M265.2,58.9l1.1,9.9h-7.9L265.2,58.9z"/>
		<path class="st2" d="M281.4,61.9c2.6,0,3.7,0.3,4.4,1.1c0.7,0.8,0.7,1.8,0.1,4.1l-0.4,1.4h-2.9l0.4-1.4c0.6-2.1,0.2-2.8-2-2.8
			h-1.2l-3.4,12.3h-3.1l4.1-14.7H281.4"/>
		<path class="st2" d="M301.2,64.2h-4.9c-3.4,0-5.1,1.4-6.1,5.1c-0.4,1.5-0.5,2.5-0.3,3.4c0.4,1.2,1.3,1.6,3.5,1.6h4.9l-0.7,2.3
			h-4.9c-3.2,0-4.6-0.4-5.4-1.7c-0.8-1.3-1-3.3-0.4-5.4c0.7-2.3,1.9-4.3,3.6-5.7c1.8-1.4,3.5-2,6.4-2h4.9L301.2,64.2"/>
	</g>
	<path class="st0" d="M6.8,95.3c-0.4,1.4-1.9,2.6-3.3,2.6c-1.4,0-2.3-1.2-1.9-2.6c0,0,2.7-9.6,2.7-9.6c2.6-10.3,12.7-9.3,12.7-9.3
		h5.7c1.2,0,2,1,1.6,2.2c-0.3,1.2-1.6,2.2-2.8,2.2h-4.9c0,0-5.6-0.6-6.9,3.9h9.4c1.3,0,2.1,1.1,1.7,2.4c-0.3,1.3-1.7,2.4-3,2.4H8.4
		C8.3,89.9,6.8,95.3,6.8,95.3"/>
	<path class="st0" d="M27.8,95.3c-0.4,1.4-1.9,2.6-3.3,2.6c-1.4,0-2.3-1.2-1.9-2.6c0,0,2.7-9.6,2.7-9.6C27.8,75.4,38,76.3,38,76.3
		h5.7c1.2,0,2,1,1.6,2.2c-0.3,1.2-1.6,2.2-2.8,2.2h-4.9c0,0-5.6-0.6-6.9,3.9H40c1.3,0,2.1,1.1,1.7,2.4c-0.3,1.3-1.7,2.4-3,2.4h-9.2
		C29.4,89.9,27.8,95.3,27.8,95.3"/>
	<path class="st0" d="M55.2,95.3c-0.4,1.4-1.9,2.6-3.3,2.6c-1.4,0-2.3-1.2-1.9-2.6l4-14.5h-4.7c-1.2,0-2-1-1.6-2.2
		c0.3-1.2,1.6-2.2,2.8-2.2h14.9c1.2,0,2,1,1.6,2.2c-0.3,1.2-1.6,2.2-2.8,2.2h-5L55.2,95.3"/>
	<path class="st2" d="M79.2,93.3h-7.8c-1.1,0-1.7-0.9-1.4-2c0.3-1.1,1.4-2,2.5-2h7.8L79.2,93.3 M82.6,76.3H71.7
		c-1.2,0-2.5,1-2.8,2.3c-0.3,1.2,0.4,2.3,1.6,2.3H79c2.1,0,3.9,0.2,2.7,3.8H72c-3.6,0-7.4,3-8.4,6.7c-1,3.6,1.2,6.6,4.8,6.6h15.2
		l3.9-14.7C88.6,79.4,86.3,76.3,82.6,76.3z"/>
</g>
</svg>
